<?xml version="1.0" encoding="utf-8"?>
<!-- Generator: Adobe Illustrator 16.0.4, SVG Export Plug-In . SVG Version: 6.00 Build 0)  -->
<!DOCTYPE svg PUBLIC "-//W3C//DTD SVG 1.1//EN" "http://www.w3.org/Graphics/SVG/1.1/DTD/svg11.dtd">
<svg version="1.1" id="Layer_1" xmlns="http://www.w3.org/2000/svg" xmlns:xlink="http://www.w3.org/1999/xlink" x="0px" y="0px"
	 width="16px" height="16px" viewBox="0 0 16 16" enable-background="new 0 0 16 16" xml:space="preserve">
<path fill="#FFFFFF" d="M13,3.333H6.333c-0.844,0-1.889,0.538-2.38,1.225l-1.74,2.435C1.785,7.592,1.425,8.096,1.414,8.112
	C1.333,8.229,1.333,8.44,1.416,8.555c0.015,0.022,0.37,0.519,0.792,1.109l1.746,2.445c0.49,0.686,1.535,1.224,2.379,1.224H13
	c0.919,0,1.667-0.748,1.667-1.667V4.999C14.667,4.08,13.92,3.332,13,3.333L13,3.333z M11.471,9.861c0.262,0.262,0.262,0.683,0,0.943
	C11.341,10.936,11.17,11,11,11s-0.341-0.064-0.471-0.195L9,9.275l-1.529,1.529C7.341,10.936,7.17,11,7,11s-0.341-0.064-0.471-0.195
	c-0.261-0.261-0.261-0.682,0-0.943l1.529-1.528L6.529,6.804c-0.261-0.261-0.261-0.682,0-0.943C6.79,5.6,7.211,5.6,7.472,5.861
	L9.001,7.39l1.528-1.529c0.262-0.261,0.683-0.261,0.943,0c0.262,0.261,0.262,0.682,0,0.943L9.943,8.333l1.529,1.528H11.471z"/>
</svg>
