<?xml version="1.0" encoding="utf-8"?>
<!-- Generator: Adobe Illustrator 19.1.0, SVG Export Plug-In . SVG Version: 6.00 Build 0)  -->
<!DOCTYPE svg PUBLIC "-//W3C//DTD SVG 1.1//EN" "http://www.w3.org/Graphics/SVG/1.1/DTD/svg11.dtd">
<svg version="1.1" id="Layer_1" xmlns="http://www.w3.org/2000/svg" xmlns:xlink="http://www.w3.org/1999/xlink" x="0px" y="0px"
	 viewBox="0 0 360 360" style="enable-background:new 0 0 360 360;" xml:space="preserve">
<style type="text/css">
	.st0{fill:#FFFFFF;}
	.st1{clip-path:url(#SVGID_2_);}
	.st2{clip-path:url(#SVGID_4_);fill:#FFFFFF;}
</style>
<g>
	<path class="st0" d="M57.9,245.2c-0.4,1.5-1.2,3.9-1.8,5c-0.8,0.2-3.7,0.8-5.8,0.8c-8.2,0-11.6-5.4-11.6-10.5c0-6.5,5-11,12.3-11
		c2.5,0,4.8,0.7,5.7,0.9c0.3,1.7,0.5,3.1,0.7,5l-1.1,0.2c-0.9-3.6-3.2-4.8-6-4.8c-4.8,0-7.4,4.3-7.4,9c0,5.8,3.2,9.7,7.7,9.7
		c2.8,0,4.7-1.7,6.3-4.8L57.9,245.2z"/>
	<path class="st0" d="M77.5,240.5c1.4,0,2.5-0.2,3.2-0.9c1.1-0.9,1.6-2.2,1.6-3.8c0-3.4-2-4.6-4-4.6c-0.9,0-1.3,0.1-1.5,0.3
		c-0.2,0.2-0.3,0.5-0.3,1.3v7.7H77.5z M89.2,250.8c-0.3,0-0.6,0-1,0c-3.4-0.2-4.6-1-6-3c-0.9-1.4-1.9-3.2-2.8-4.8
		c-0.5-0.9-1.1-1.3-2.3-1.3h-0.7v4.8c0,2.6,0.3,2.9,2.7,3.1v1h-9v-1c2.4-0.2,2.7-0.5,2.7-3.1v-12.3c0-2.6-0.3-2.8-2.6-3.1v-1h8.4
		c2.6,0,4.2,0.3,5.4,1.1c1.3,0.8,2.1,2.2,2.1,4.2c0,2.7-1.8,4.3-4,5.2c0.5,1,1.7,3.1,2.7,4.5c1.1,1.7,1.8,2.6,2.5,3.4
		c0.7,0.8,1.3,1.2,2,1.4L89.2,250.8z"/>
	<path class="st0" d="M109.3,230.9c-3.3,0-6,3.2-6,8.8c0,5.5,2.7,10,6.9,10c3.2,0,5.9-2.9,5.9-8.8
		C116,234.5,113.2,230.9,109.3,230.9L109.3,230.9z M110,229.6c5.6,0,10.3,4.2,10.3,10.5c0,6.8-4.9,10.9-10.7,10.9
		c-6.1,0-10.5-4.5-10.5-10.6C99.1,234.9,103,229.6,110,229.6L110,229.6z"/>
	<path class="st0" d="M143.3,235c-0.6-2-1.7-4.2-4.3-4.2c-2,0-3.2,1.4-3.2,3.2c0,1.9,1.3,3,4,4.3c3,1.5,5.5,3.2,5.5,6.4
		c0,3.5-3,6.2-7.4,6.2c-1.2,0-2.3-0.2-3.1-0.5c-0.8-0.2-1.4-0.5-1.8-0.7c-0.3-0.8-0.7-3.4-0.9-5.2l1.1-0.3c0.6,2,2.3,5.4,5.4,5.4
		c2.1,0,3.4-1.4,3.4-3.5c0-2-1.5-3.2-3.9-4.4c-2.8-1.4-5.4-3.1-5.4-6.3c0-3.3,2.6-6,7-6c1.8,0,3.4,0.5,4.2,0.8
		c0.1,1.1,0.3,2.5,0.6,4.4L143.3,235z"/>
	<path class="st0" d="M169.8,235c-0.6-2-1.7-4.2-4.3-4.2c-2,0-3.2,1.4-3.2,3.2c0,1.9,1.3,3,4,4.3c3,1.5,5.5,3.2,5.5,6.4
		c0,3.5-3,6.2-7.4,6.2c-1.2,0-2.3-0.2-3.1-0.5c-0.9-0.2-1.4-0.5-1.8-0.7c-0.3-0.8-0.7-3.4-0.9-5.2l1.1-0.3c0.6,2,2.3,5.4,5.4,5.4
		c2.1,0,3.4-1.4,3.4-3.5c0-2-1.5-3.2-3.9-4.4c-2.8-1.4-5.4-3.1-5.4-6.3c0-3.3,2.6-6,7-6c1.8,0,3.4,0.5,4.2,0.8
		c0.1,1.1,0.3,2.5,0.6,4.4L169.8,235z"/>
	<path class="st0" d="M192,240.5c1.4,0,2.5-0.2,3.2-0.9c1.1-0.9,1.6-2.2,1.6-3.8c0-3.4-2-4.6-4-4.6c-0.8,0-1.3,0.1-1.5,0.3
		c-0.2,0.2-0.3,0.5-0.3,1.3v7.7H192z M203.7,250.8c-0.2,0-0.6,0-1,0c-3.4-0.2-4.6-1-6-3c-0.9-1.4-1.9-3.2-2.8-4.8
		c-0.5-0.9-1.1-1.3-2.3-1.3H191v4.8c0,2.6,0.3,2.9,2.7,3.1v1h-9v-1c2.4-0.2,2.7-0.5,2.7-3.1v-12.3c0-2.6-0.3-2.8-2.6-3.1v-1h8.4
		c2.6,0,4.2,0.3,5.4,1.1c1.3,0.8,2.1,2.2,2.1,4.2c0,2.7-1.8,4.3-4,5.2c0.5,1,1.7,3.1,2.7,4.5c1.1,1.7,1.8,2.6,2.5,3.4
		c0.7,0.8,1.3,1.2,2,1.4L203.7,250.8z"/>
	<path class="st0" d="M225.2,230.9c-3.3,0-6,3.2-6,8.8c0,5.5,2.7,10,6.9,10c3.2,0,5.9-2.9,5.9-8.8
		C231.9,234.5,229,230.9,225.2,230.9L225.2,230.9z M225.8,229.6c5.6,0,10.3,4.2,10.3,10.5c0,6.8-4.9,10.9-10.7,10.9
		c-6.1,0-10.5-4.5-10.5-10.6C214.9,234.9,218.8,229.6,225.8,229.6L225.8,229.6z"/>
	<path class="st0" d="M254.8,234.7L254.8,234.7c-1,2.4-1.9,4.9-2.7,7.2h5.3L254.8,234.7z M257.6,250.5v-1c1.9-0.3,2.1-0.6,1.6-1.9
		c-0.3-1-0.9-2.5-1.4-4h-6.3c-0.4,1.1-0.8,2.4-1.2,3.6c-0.5,1.7-0.4,2.1,1.9,2.4v1h-7v-1c2-0.3,2.5-0.6,3.5-3.3l6.5-16.3l1.4-0.4
		c2,5.5,4,11.1,6,16.6c1,2.8,1.4,3.1,3.5,3.4v1H257.6z"/>
	<path class="st0" d="M282.8,246.2c0,2.3,0.7,3,2.9,3c4.8,0,7.7-3.8,7.7-9.2c0-3.1-1-5.6-2.9-7.1c-1.3-1.2-3.1-1.7-5.2-1.7
		c-1.2,0-1.9,0.2-2.2,0.4c-0.2,0.3-0.3,0.7-0.3,1.8V246.2z M285.8,230c4,0,7,0.8,9,2.7c1.5,1.5,2.7,3.7,2.7,6.7
		c0,3.8-1.5,6.6-3.9,8.4c-2.3,1.8-5.6,2.6-9.5,2.6h-7.9v-1c2.6-0.2,2.9-0.4,2.9-3.1v-12.3c0-2.7-0.3-2.9-2.6-3.1v-1H285.8z"/>
	<path class="st0" d="M321.2,235c-0.6-2-1.7-4.2-4.3-4.2c-2,0-3.2,1.4-3.2,3.2c0,1.9,1.3,3,4,4.3c3,1.5,5.5,3.2,5.5,6.4
		c0,3.5-3,6.2-7.4,6.2c-1.2,0-2.3-0.2-3.1-0.5c-0.8-0.2-1.4-0.5-1.8-0.7c-0.3-0.8-0.7-3.4-0.9-5.2l1.1-0.3c0.6,2,2.3,5.4,5.3,5.4
		c2.1,0,3.4-1.4,3.4-3.5c0-2-1.5-3.2-3.9-4.4c-2.8-1.4-5.4-3.1-5.4-6.3c0-3.3,2.6-6,7-6c1.8,0,3.4,0.5,4.2,0.8
		c0.1,1.1,0.3,2.5,0.6,4.4L321.2,235z"/>
	<path class="st0" d="M71.7,204.8c-0.7,2.6-2.1,6.8-3.1,8.6c-1.5,0.3-6.3,1.4-10.1,1.4c-14.2,0-20.2-9.4-20.2-18.1
		c0-11.3,8.7-19,21.4-19c4.4,0,8.3,1.1,9.8,1.5c0.5,3,0.9,5.5,1.2,8.7l-1.9,0.4c-1.6-6.2-5.5-8.3-10.4-8.3
		c-8.3,0-12.9,7.5-12.9,15.7c0,10.1,5.6,16.9,13.4,16.9c4.9,0,8.1-2.9,10.9-8.4L71.7,204.8z"/>
	<path class="st0" d="M106.3,186.7h-0.1c-1.6,4.2-3.1,8.5-4.6,12.5h9.1L106.3,186.7z M111.2,214v-1.7c3.3-0.5,3.7-1,2.8-3.4
		c-0.6-1.8-1.5-4.4-2.5-7h-10.9c-0.7,2-1.5,4.1-2.1,6.3c-0.9,3-0.7,3.7,3.3,4.1v1.7H89.8v-1.7c3.5-0.4,4.3-1,6.1-5.7l11.2-28.2
		l2.4-0.7c3.4,9.5,6.9,19.3,10.4,28.7c1.8,4.8,2.5,5.5,6,5.8v1.7H111.2z"/>
	<path class="st0" d="M156.8,196.7c2.5,0,4.2-0.4,5.5-1.5c1.9-1.6,2.7-3.7,2.7-6.7c0-5.9-3.7-7.9-7-7.9c-1.3,0-2.1,0.2-2.5,0.6
		c-0.4,0.4-0.5,1-0.5,2.2v13.3H156.8z M177.9,216.8c-0.7,0-1.6-0.1-2.7-0.3c-5-0.6-7.3-2.9-9.7-6.5c-2-3.2-4-6.5-5.5-9.1
		c-0.9-1.6-1.8-2.2-3.9-2.2H155v8.2c0,4.7,0.5,5,4.7,5.3v1.7H144v-1.7c4.3-0.3,4.8-0.7,4.8-5.3v-21.3c0-4.6-0.5-4.9-4.6-5.2v-1.8
		H159c4.4,0,7,0.6,9.1,2c2.2,1.4,3.6,3.9,3.6,7c0,4.9-3.1,7.8-6.8,9.4c2.5,4.3,5.8,9.6,8.7,13.5c1.9,2.6,3.4,4,4.9,4.6L177.9,216.8z
		"/>
	<path class="st0" d="M232.6,180.3c-2.9,0.2-4.1,0.9-4.4,3.3c-0.2,1.7-0.4,4.2-0.4,9.1v21.8h-2.3l-22.9-27.7h-0.1v12.8
		c0,4.9,0.2,7.3,0.4,9c0.3,2.6,1.4,3.4,5.2,3.7v1.7h-13.1v-1.7c3.1-0.2,4.4-1,4.6-3.5c0.2-1.8,0.5-4.3,0.5-9.1v-11.6
		c0-3.8-0.1-4.5-1.1-5.7c-1.1-1.4-2.3-1.8-4.7-2v-1.7h9.3l21.5,25.2h0.2v-11c0-4.9-0.3-7.4-0.4-9c-0.3-2.4-1.5-3.2-5.4-3.4v-1.7
		h13.1V180.3z"/>
	<path class="st0" d="M280.4,205.1c-0.3,2.2-1.4,7.3-1.9,8.9h-27.3v-1.7c4.7-0.4,5.2-0.8,5.2-5.3v-21.3c0-4.8-0.5-5.1-4.5-5.4v-1.7
		h25.2c0,1.1,0.3,4.9,0.5,8.1l-1.9,0.3c-0.5-2.1-1.1-3.7-2-4.7c-0.9-1.1-2.3-1.5-5.7-1.5h-3.2c-1.9,0-2.1,0.1-2.1,1.9v12h4.2
		c4.8,0,5.3-0.3,6.1-4.2h1.8v10.8H273c-0.7-3.9-1.3-4.2-6-4.2h-4.3v9.7c0,2.6,0.3,3.9,1.3,4.5c1,0.5,2.9,0.6,5.2,0.6
		c3.3,0,5.1-0.4,6.3-1.8c1-1.1,2-2.9,2.9-5.2L280.4,205.1z"/>
	<path class="st0" d="M320.1,187.2c-1-3.4-2.9-7.4-7.4-7.4c-3.5,0-5.6,2.5-5.6,5.6c0,3.4,2.2,5.1,6.9,7.5c5.2,2.6,9.5,5.4,9.5,11.1
		c0,6.1-5.1,10.8-12.9,10.8c-2.1,0-3.9-0.3-5.4-0.8c-1.5-0.4-2.5-0.8-3.1-1.1c-0.5-1.3-1.2-6-1.6-9l1.9-0.5c1,3.4,3.9,9.3,9.3,9.3
		c3.7,0,5.9-2.4,5.9-6.1c0-3.5-2.6-5.5-6.7-7.7c-4.9-2.5-9.3-5.3-9.3-10.9c0-5.7,4.5-10.3,12.1-10.3c3.1,0,5.9,0.9,7.3,1.4
		c0.2,2,0.5,4.3,1,7.7L320.1,187.2z"/>
	<path class="st0" d="M210.5,159.6h112.9v-1.8H210.5V159.6z M38.1,159.6H151v-1.8H38.1V159.6z"/>
	<path class="st0" d="M208.4,138.2L208.4,138.2l0-0.2l0-0.2h0c-0.1-0.4-0.1-0.8-0.2-1.1c-0.4-2.2-1.1-4-1.9-5.4
		c-0.7-1.3-1.6-2.4-2.5-3.3c-1.4-1.4-3.1-2.4-4.8-3.4c-1.8-1.1-4.3-1.6-6.6-1.8c-4.1-0.4-8.1,0.1-8.7,0.2c-2.8,0.4-6.1,0.5-7.4-1.3
		c-2-2.6,0.1-5.6,1.8-5.9c0.9-0.2,1.7,0,2.1,0.3c0.2,0.1,0.5,0.5,0.5,0.7c-0.5-0.2-1.1-0.1-1.5,0.1c-0.8,0.5-0.9,1.5-0.5,2.3
		c1,1.9,4.2,1.2,4.3-1.6c0.1-2.8-2.5-3.6-4-3.7c-2-0.1-4.8,1.5-5.6,4.1h0l0,0v0c0,0.1,0,0.1-0.1,0.3c-0.1,0.5-0.2,1-0.2,1.5
		c0,1.1,0.3,2.6,1.4,4c1.8,2.3,4,2.8,5.1,2.9l0.1,0l0.2,0l0.2,0l0,0v0l0.2,0c-0.2,0.2-0.3,0.4-0.5,0.6l0,0l0,0
		c-0.2,0.3-0.8,1.2-1.7,2.4v0c-1.4,1.7-3.2,3.1-3.7,3.4c-0.2,0.2-0.8,0.5-1.6,0.9c-0.1,0.1-0.3,0.1-0.5,0.2l-0.1,0
		c-0.6,0.2-1.2,0.4-1.9,0.6c-2.9,0.6-4.1-0.7-4.5-1.1c-1-0.9-2.5-3.5-1.4-6.6c1.1-3.1,3.9-3.8,3.9-3.8v0c0.1,0,0.2-0.1,0.3-0.1
		c-0.3,0.4-0.4,0.9-0.3,1.4c0.1,1.2,1.2,2.1,2.4,1.9c0.9-0.1,1.7-0.8,1.9-1.6c0.1-0.3,0.2-0.6,0.1-1c0-0.1,0-0.2-0.1-0.4l0-0.1
		l0-0.1l-0.1-0.2c-0.5-1.5-2-1.7-2.4-1.7c-0.3,0-5.9-0.5-7.9,5.7c-2,5.9,2.2,11.3,7.3,11.7c2.8,0.2,5.1-0.9,7-2.5
		c-1.9,3.1-4.6,7-6.6,9.2c-0.6-0.2-1.3-0.3-1.9,0c-1.3,0.5-1.9,1.9-1.3,3.1c0.5,1.3,2,1.9,3.3,1.4c1.3-0.5,1.9-1.9,1.3-3.1l0-0.1
		c2.4-2.6,5.1-6.8,7.1-10c-1.7,4.2-3.9,10.1-5,15.6l-0.1,0c-1.3,0.3-2.1,1.6-1.7,2.9c0.4,1.3,1.8,2.1,3.1,1.7
		c1.3-0.3,2.1-1.6,1.7-2.9c-0.2-0.6-0.6-1.1-1.2-1.5c1.1-5.7,2.9-10.6,4.6-14.8c-0.2,3.8,0.1,9.4,0.8,13.6l-0.1,0
		c-1.2,0.7-1.4,2.2-0.6,3.3c0.8,1.1,2.4,1.4,3.5,0.6c1.2-0.7,1.4-2.2,0.6-3.3c-0.4-0.5-1-0.9-1.6-1c-0.5-3-0.7-9-0.6-12.7
		c0.1,1.7,0.5,3.4,1.7,5c4.4,5.7,11.2,5.5,15.3,1.2c1.8-1.9,3.4-6.2,2.5-8.9c-0.8-2.3-2.7-4-5.1-4.3c-2.1-0.2-5.1,1-5.1,4l0,0
		c0,0.1,0,0.2,0,0.4c0.1,1.4,1.4,2.4,2.8,2.2c1.4-0.1,2.4-1.4,2.2-2.8c-0.1-0.6-0.4-1.2-0.8-1.6l0.2-0.1c0.3-0.2,1.1-0.2,1.6,0
		c1.7,0.7,2.5,3,1.7,5.5c-0.1,0.2-0.2,0.4-0.3,0.6l0,0c-0.6,1.3-1.5,2.4-2.8,3.2c-2.7,1.6-6.2,0.6-8-0.9c-1.9-1.5-2.2-3.5-2-6
		c0.2-2,1-3.8,2.3-5.1c1.8-1.9,4.3-3,7.1-2.7c0.2,0,0.4,0,0.6,0.1c2,0.1,3.9,0.9,5.4,2.2c0.6,0.5,1.3,1.1,1.8,1.8
		c1.1,1.3,1.8,2.9,2.3,4.7c0.2,0.9,0.3,1.9,0.3,3c0,1.3-0.2,2.5-0.4,3.5c-0.3,1.3-0.5,1.8-0.7,2.4c-2.2,7.2-7.8,11-10.9,12.7
		c-3.8,2.1-8.1,3.2-12.4,3.2c-13.9,0-25.6-11.7-25.6-25.6c0-14.1,11.5-25.6,25.6-25.6c9.4,0,18.1,5.2,22.5,13.5
		c0.1,0.2,0.5,0.8,0.7,1.1c0.7,0.7,1.2,0.7,1.5,0.6c0.2-0.1,0.6-0.4,0.6-1.2c0-0.5-0.6-1.7-0.7-1.9c-5-9-14.4-14.6-24.7-14.6
		c-15.5,0-28.1,12.6-28.1,28.1c0,15.5,12.6,28.1,28.1,28.1c10.8,0,20.4-6,25.2-15.7C208,145.5,208.7,141.9,208.4,138.2"/>
	<path class="st0" d="M192.3,122.8c-4.1-0.4-8.1,0.1-8.7,0.2c-2.8,0.4-6.1,0.5-7.4-1.3c-2-2.6,0.1-5.6,1.8-5.9
		c0.9-0.2,1.7,0,2.1,0.3c0.2,0.1,0.5,0.5,0.5,0.7c-0.5-0.2-1.1-0.1-1.5,0.1c-0.8,0.5-0.9,1.5-0.5,2.3c1,1.9,4.2,1.2,4.3-1.6
		c0.1-2.8-2.5-3.6-4-3.7c-2-0.1-4.8,1.5-5.6,4.1h0l0,0v0c0,0.1,0,0.1-0.1,0.3c-0.1,0.5-0.2,1-0.2,1.5c0,1.1,0.3,2.6,1.4,4
		c1.8,2.3,4,2.8,5.1,2.9l0.1,0l0.2,0l0.2,0l0,0v0l0.2,0c-0.2,0.2-0.3,0.4-0.5,0.6l0,0l0,0c-0.2,0.3-0.8,1.2-1.7,2.4v0
		c-1.4,1.7-3.2,3.1-3.7,3.4c-0.2,0.2-0.8,0.5-1.6,0.9c-0.1,0.1-0.3,0.1-0.5,0.2l-0.1,0c-0.6,0.2-1.2,0.4-1.9,0.6
		c-2.9,0.6-4.1-0.7-4.5-1.1c-1-0.9-2.5-3.5-1.4-6.6c1.1-3.1,3.9-3.8,3.9-3.8v0c0.1,0,0.2-0.1,0.3-0.1c-0.3,0.4-0.4,0.9-0.3,1.4
		c0.1,1.2,1.2,2.1,2.4,1.9c0.9-0.1,1.7-0.8,1.9-1.6c0.1-0.3,0.2-0.6,0.1-1c0-0.1,0-0.2-0.1-0.4l0-0.1l0-0.1l-0.1-0.2
		c-0.5-1.5-2-1.7-2.4-1.7c-0.3,0-5.9-0.5-7.9,5.7c-2,5.9,2.2,11.3,7.3,11.7c2.8,0.2,5.1-0.9,7-2.5c-1.9,3.1-4.6,7-6.6,9.2
		c-0.6-0.2-1.3-0.3-1.9,0c-1.3,0.5-1.9,1.9-1.3,3.1c0.5,1.3,2,1.9,3.3,1.4c1.3-0.5,1.9-1.9,1.3-3.1l0-0.1c2.4-2.6,5.1-6.8,7.1-10
		c-1.7,4.2-3.9,10.1-5,15.6l-0.1,0c-1.3,0.3-2.1,1.6-1.7,2.9c0.4,1.3,1.8,2.1,3.1,1.7c1.3-0.3,2.1-1.6,1.7-2.9
		c-0.2-0.6-0.6-1.1-1.2-1.5c1.1-5.7,2.9-10.6,4.6-14.8c-0.2,3.8,0.1,9.4,0.8,13.6l-0.1,0c-1.2,0.7-1.4,2.2-0.6,3.3
		c0.8,1.1,2.4,1.4,3.5,0.6c1.2-0.7,1.4-2.2,0.6-3.3c-0.4-0.5-1-0.9-1.6-1c-0.5-3-0.7-9-0.6-12.7c0.1,1.7,0.5,3.4,1.7,5
		c4.4,5.7,11.2,5.5,15.3,1.2c1.8-1.9,3.4-6.2,2.5-8.9c-0.8-2.3-2.7-4-5.1-4.3c-2.1-0.2-5.1,1-5.1,4l0,0c0,0.1,0,0.2,0,0.4
		c0.1,1.4,1.4,2.4,2.8,2.2c1.4-0.1,2.4-1.4,2.2-2.8c-0.1-0.6-0.4-1.2-0.8-1.6l0.2-0.1c0.3-0.2,1.1-0.2,1.6,0c1.7,0.7,2.5,3,1.7,5.5
		c-0.1,0.2-0.2,0.4-0.3,0.6l0,0c-0.6,1.3-1.5,2.4-2.8,3.2c-2.7,1.6-6.2,0.6-8-0.9c-1.9-1.5-2.2-3.5-2-6c0.2-2,1-3.8,2.3-5.1
		c1.8-1.9,4.3-3,7.1-2.7"/>
	<path class="st0" d="M206.5,148.9c1.6-3.4,2.2-7,1.9-10.7l0,0l0-0.2l0-0.2h0c-0.1-0.4-0.1-0.8-0.2-1.1c-0.4-2.2-1.1-4-1.9-5.4
		c-0.7-1.3-1.6-2.4-2.5-3.3c-1.4-1.4-3.1-2.4-4.8-3.4c-1.8-1.1-4.3-1.6-6.6-1.8c-4.1-0.4-8.1,0.1-8.7,0.2l4.6,8.3
		c1.8-1.9,4.3-3,7.1-2.7c0.2,0,0.4,0,0.6,0.1c2,0.1,3.9,0.9,5.4,2.2c0.6,0.5,1.3,1.1,1.8,1.8c1.1,1.3,1.8,2.9,2.3,4.7
		c0.2,0.9,0.3,1.9,0.3,3L206.5,148.9z"/>
	<g>
		<defs>
			<path id="SVGID_1_" d="M206.5,148.9c1.6-3.4,2.2-7,1.9-10.7l0,0l0-0.2l0-0.2h0c-0.1-0.4-0.1-0.8-0.2-1.1c-0.4-2.2-1.1-4-1.9-5.4
				c-0.7-1.3-1.6-2.4-2.5-3.3c-1.4-1.4-3.1-2.4-4.8-3.4c-1.8-1.1-4.3-1.6-6.6-1.8c-4.1-0.4-8.1,0.1-8.7,0.2l4.6,8.3
				c1.8-1.9,4.3-3,7.1-2.7c0.2,0,0.4,0,0.6,0.1c2,0.1,3.9,0.9,5.4,2.2c0.6,0.5,1.3,1.1,1.8,1.8c1.1,1.3,1.8,2.9,2.3,4.7
				c0.2,0.9,0.3,1.9,0.3,3L206.5,148.9z"/>
		</defs>
		<clipPath id="SVGID_2_">
			<use xlink:href="#SVGID_1_"  style="overflow:visible;"/>
		</clipPath>
		<g class="st1">
			<defs>
				<rect id="SVGID_3_" x="183.6" y="122.4" width="25.1" height="26.6"/>
			</defs>
			<clipPath id="SVGID_4_">
				<use xlink:href="#SVGID_3_"  style="overflow:visible;"/>
			</clipPath>
			<rect x="183.6" y="122.4" class="st2" width="25.1" height="26.6"/>
		</g>
	</g>
</g>
</svg>
