<?xml version="1.0" encoding="utf-8"?>
<!-- Generator: Adobe Illustrator 16.0.4, SVG Export Plug-In . SVG Version: 6.00 Build 0)  -->
<!DOCTYPE svg PUBLIC "-//W3C//DTD SVG 1.1//EN" "http://www.w3.org/Graphics/SVG/1.1/DTD/svg11.dtd">
<svg version="1.1" id="Layer_1" xmlns="http://www.w3.org/2000/svg" xmlns:xlink="http://www.w3.org/1999/xlink" x="0px" y="0px"
	 width="19px" height="19px" viewBox="0 0 19 19" enable-background="new 0 0 19 19" xml:space="preserve">
<path fill="#695E49" d="M18.654,4.762c-0.011-0.071-0.026-0.141-0.045-0.209c-0.008-0.032-0.018-0.064-0.028-0.096
	c-0.238-0.708-0.907-1.219-1.695-1.219h0.123c0,0-3.17-0.478-7.386-0.498C5.406,2.76,2.236,3.238,2.236,3.238h0.123
	c-0.789,0-1.457,0.512-1.695,1.219C0.654,4.489,0.644,4.521,0.635,4.553C0.617,4.621,0.602,4.691,0.591,4.762
	C0.476,5.584,0.287,7.226,0.27,9.192c0.017,1.967,0.207,3.607,0.322,4.43c0.011,0.071,0.025,0.141,0.044,0.209
	c0.009,0.033,0.019,0.064,0.029,0.097c0.238,0.707,0.906,1.218,1.695,1.218H2.236c0,0,3.17,0.479,7.386,0.498
	c4.216-0.02,7.386-0.498,7.386-0.498h-0.123c0.788,0,1.457-0.511,1.695-1.218c0.011-0.032,0.021-0.063,0.028-0.097
	c0.019-0.068,0.034-0.138,0.045-0.209c0.114-0.823,0.304-2.463,0.321-4.43C18.958,7.226,18.769,5.584,18.654,4.762z M12.393,9.592
	l-3.777,2.744c-0.079,0.059-0.173,0.088-0.267,0.088c-0.07,0-0.142-0.018-0.207-0.05c-0.152-0.078-0.248-0.234-0.248-0.405V6.483
	c0-0.172,0.096-0.329,0.248-0.406c0.152-0.078,0.335-0.063,0.473,0.038l3.777,2.743c0.119,0.085,0.188,0.222,0.188,0.368
	C12.58,9.371,12.512,9.507,12.393,9.592z"/>
</svg>
