<?xml version="1.0" encoding="utf-8"?>
<!-- Generator: Adobe Illustrator 16.0.4, SVG Export Plug-In . SVG Version: 6.00 Build 0)  -->
<!DOCTYPE svg PUBLIC "-//W3C//DTD SVG 1.1//EN" "http://www.w3.org/Graphics/SVG/1.1/DTD/svg11.dtd">
<svg version="1.1" id="Layer_1" xmlns="http://www.w3.org/2000/svg" xmlns:xlink="http://www.w3.org/1999/xlink" x="0px" y="0px"
	 width="18px" height="18px" viewBox="0 0 18 18" enable-background="new 0 0 18 18" xml:space="preserve">
<path fill="#695E49" d="M9.016,0.249C4.183,0.249,0.264,4.167,0.264,9c0,3.583,2.155,6.661,5.241,8.015
	c-0.026-0.608-0.005-1.344,0.15-2.009c0.17-0.711,1.126-4.77,1.126-4.77S6.501,9.679,6.501,8.853c0-1.297,0.751-2.265,1.688-2.265
	c0.796,0,1.181,0.597,1.181,1.313c0,0.801-0.51,1.998-0.772,3.106c-0.22,0.928,0.466,1.687,1.38,1.687
	c1.659,0,2.775-2.131,2.775-4.654c0-1.917-1.292-3.353-3.642-3.353c-2.654,0-4.308,1.979-4.308,4.19
	c0,0.763,0.225,1.301,0.576,1.716c0.162,0.192,0.185,0.27,0.127,0.488c-0.042,0.16-0.139,0.55-0.178,0.702
	c-0.059,0.222-0.238,0.301-0.438,0.22c-1.222-0.5-1.792-1.839-1.792-3.343c0-2.486,2.096-5.468,6.253-5.468
	c3.34,0,5.539,2.418,5.539,5.013c0,3.435-1.907,5.999-4.72,5.999c-0.946,0-1.834-0.513-2.138-1.092c0,0-0.509,2.017-0.616,2.405
	c-0.185,0.676-0.549,1.35-0.881,1.874c0.787,0.232,1.619,0.36,2.48,0.36c4.832,0,8.751-3.919,8.751-8.752S13.848,0.249,9.016,0.249z
	"/>
</svg>
