<?xml version="1.0" encoding="utf-8"?>
<!-- Generator: Adobe Illustrator 16.0.4, SVG Export Plug-In . SVG Version: 6.00 Build 0)  -->
<!DOCTYPE svg PUBLIC "-//W3C//DTD SVG 1.1//EN" "http://www.w3.org/Graphics/SVG/1.1/DTD/svg11.dtd">
<svg version="1.1" id="Layer_1" xmlns="http://www.w3.org/2000/svg" xmlns:xlink="http://www.w3.org/1999/xlink" x="0px" y="0px"
	 width="18px" height="18px" viewBox="0 0 18 18" enable-background="new 0 0 18 18" xml:space="preserve">
<g>
	<g>
		<path fill="#FFFFFF" d="M17.67,3.136c-0.648,0.313-1.34,0.517-2.072,0.61c0.746-0.48,1.318-1.236,1.59-2.142
			c-0.697,0.442-1.47,0.758-2.291,0.942c-0.655-0.757-1.596-1.229-2.629-1.229c-1.988,0-3.602,1.734-3.602,3.878
			c0,0.301,0.031,0.599,0.091,0.879C5.769,5.922,3.11,4.372,1.333,2.031C1.024,2.602,0.848,3.266,0.848,3.98
			c0,1.342,0.635,2.536,1.603,3.221C1.859,7.177,1.304,7.012,0.819,6.719c0,0.016,0,0.036,0,0.053c0,1.875,1.241,3.44,2.889,3.802
			c-0.301,0.088-0.621,0.129-0.951,0.129c-0.232,0-0.451-0.016-0.674-0.07c0.457,1.547,1.789,2.67,3.364,2.693
			c-1.233,1.045-2.785,1.66-4.473,1.66c-0.292,0-0.579-0.019-0.86-0.055c1.593,1.104,3.483,1.748,5.521,1.748
			c6.625,0,10.249-5.91,10.249-11.035c0-0.163-0.003-0.33-0.012-0.496C16.575,4.596,17.188,3.912,17.67,3.136z"/>
	</g>
</g>
</svg>
