<?xml version="1.0" encoding="utf-8"?>
<!-- Generator: Adobe Illustrator 16.0.4, SVG Export Plug-In . SVG Version: 6.00 Build 0)  -->
<!DOCTYPE svg PUBLIC "-//W3C//DTD SVG 1.1//EN" "http://www.w3.org/Graphics/SVG/1.1/DTD/svg11.dtd">
<svg version="1.1" id="Layer_1" xmlns="http://www.w3.org/2000/svg" xmlns:xlink="http://www.w3.org/1999/xlink" x="0px" y="0px"
	 width="18px" height="18px" viewBox="0 0 18 18" enable-background="new 0 0 18 18" xml:space="preserve">
<path fill="#695E49" d="M14.394,0.409H3.832c-1.835,0-3.328,1.492-3.328,3.328v3.515v7.049c0,1.834,1.492,3.326,3.328,3.326h10.562
	c1.835,0,3.328-1.492,3.328-3.326V7.251V3.737C17.722,1.901,16.229,0.409,14.394,0.409z M15.349,2.394l0.381-0.001v0.379v2.539
	L12.82,5.32l-0.01-2.918L15.349,2.394z M6.656,7.251c0.551-0.764,1.446-1.264,2.457-1.264c1.012,0,1.907,0.5,2.458,1.264
	c0.359,0.498,0.574,1.107,0.574,1.767c0,1.671-1.361,3.03-3.032,3.03s-3.03-1.359-3.03-3.03C6.083,8.358,6.297,7.749,6.656,7.251z
	 M16.044,14.301c0,0.91-0.738,1.648-1.65,1.648H3.832c-0.911,0-1.65-0.738-1.65-1.648V7.251h2.57
	C4.529,7.797,4.405,8.394,4.405,9.019c0,2.596,2.112,4.709,4.707,4.709c2.597,0,4.709-2.113,4.709-4.709
	c0-0.625-0.126-1.221-0.348-1.767h2.57V14.301z"/>
</svg>
