<?xml version="1.0" encoding="utf-8"?>
<!-- Generator: Adobe Illustrator 16.0.4, SVG Export Plug-In . SVG Version: 6.00 Build 0)  -->
<!DOCTYPE svg PUBLIC "-//W3C//DTD SVG 1.1//EN" "http://www.w3.org/Graphics/SVG/1.1/DTD/svg11.dtd">
<svg version="1.1" id="Layer_1" xmlns="http://www.w3.org/2000/svg" xmlns:xlink="http://www.w3.org/1999/xlink" x="0px" y="0px"
	 width="18px" height="18px" viewBox="0 0 18 18" enable-background="new 0 0 18 18" xml:space="preserve">
<path fill="#695E4A" d="M7.848,14.37c0,1.3-0.801,2.324-3.074,2.407c-1.33-0.758-2.446-1.85-3.231-3.162
	c0.409-1.013,1.69-1.782,3.153-1.767c0.415,0.005,0.803,0.07,1.155,0.185c0.966,0.673,1.746,1.093,1.942,1.859
	C7.828,14.048,7.848,14.207,7.848,14.37z M9.145,0.222c-2.559,0-4.864,1.085-6.479,2.821C3.304,2.688,4.058,2.478,4.86,2.478
	c1.161,0,4.435,0,4.435,0l-0.99,1.04H7.141c0.822,0.471,1.258,1.439,1.258,2.508c0,0.981-0.543,1.771-1.31,2.37
	c-0.75,0.584-0.891,0.829-0.891,1.327c0,0.424,0.894,1.056,1.306,1.366c1.433,1.073,1.722,1.75,1.722,3.094
	c0,1.36-1.192,2.717-3.214,3.177c0.974,0.369,2.031,0.57,3.135,0.57c4.891,0,8.854-3.963,8.854-8.853
	C18,4.185,14.037,0.222,9.145,0.222L9.145,0.222z M13.572,6.862v2.213h-1.107V6.862h-2.213V5.755h2.213V3.542h1.107v2.213h2.213
	v1.107H13.572z M6.616,6.091c0.208,1.571-0.48,2.58-1.676,2.545C3.745,8.601,2.608,7.503,2.403,5.935
	c-0.206-1.57,0.595-2.771,1.79-2.736C5.389,3.234,6.411,4.522,6.616,6.091z M4.111,11.325c-1.291,0-2.389,0.445-3.162,1.104
	c-0.423-1.035-0.658-2.167-0.658-3.354c0-0.982,0.16-1.926,0.455-2.809c0.128,1.72,1.339,3.047,3.338,3.047
	c0.146,0,0.29-0.008,0.429-0.018C4.375,9.56,4.278,9.853,4.278,10.161c0,0.519,0.286,0.813,0.638,1.156
	C4.649,11.317,4.392,11.325,4.111,11.325z"/>
</svg>
